<svg width="19.000000" height="46.312500" viewBox="0 0 19 46.3125" fill="none" xmlns="http://www.w3.org/2000/svg" xmlns:xlink="http://www.w3.org/1999/xlink">
	<desc>
			Created with Pixso.
	</desc>
	<defs/>
	<path id="N" d="M18.94 44.11Q19 43.71 19 43.31Q19 39.12 18.85 34.98Q18.71 30.84 18.62 26.68Q18.53 22.5 18.4 18.37Q18.28 14.25 18 10.06Q17.9 8.4 17.79 6.7Q17.68 5 17.5 3.31Q17.34 2.34 17.09 1.7Q16.84 1.07 16.39 0.7Q16.38 0.69 16.37 0.68Q15.9 0.31 15.21 0.15Q14.53 0 13.56 0Q13 0 12.56 0.23L12.56 0.23Q12.45 0.29 12.37 0.37Q12.12 0.63 12.12 1.12Q12.12 2.4 12.32 3.62Q12.53 4.84 12.68 6.12Q13.23 11.51 13.44 16.91Q13.46 17.4 13.48 17.89Q13.68 23.78 13.87 29.68Q12.65 25.71 11.46 21.81Q10.28 17.9 9.06 14Q8.21 11.31 7.32 8.65Q7.15 8.14 6.96 7.63Q6.18 5.51 5.12 3.5Q5.12 2.75 4.79 2.2Q4.58 1.84 4.29 1.57Q4.13 1.43 3.95 1.31Q3.43 0.96 2.78 0.79Q2.12 0.62 1.5 0.62Q0.68 0.62 0.38 1.01Q0.35 1.06 0.32 1.1Q0.06 1.59 0.06 2.31L0.06 6.75Q0.06 15.46 0.03 24.09Q0 32.71 0 41.5Q0 43.02 0.75 43.87Q0.79 43.91 0.82 43.95Q0.89 44.02 0.96 44.08Q1.78 44.81 3.25 44.81Q3.62 44.81 3.86 44.63Q3.92 44.59 3.98 44.53Q4.03 44.47 4.08 44.4Q4.27 44.16 4.37 43.85Q4.5 43.46 4.53 43.03Q4.56 42.59 4.56 42.25Q4.56 35.46 4.64 28.75Q4.71 22.03 4.87 15.25Q6.53 20.5 7.98 25.71Q9.43 30.93 11.12 36.18Q11.43 37.18 11.76 38.35Q12.09 39.53 12.46 40.7Q12.84 41.87 13.31 42.98Q13.78 44.09 14.37 44.93Q14.81 45.59 15.32 45.95Q15.84 46.31 16.68 46.31Q17.37 46.31 17.81 46.06Q18.05 45.92 18.23 45.73Q18.39 45.58 18.51 45.39Q18.78 44.96 18.89 44.42Q18.92 44.26 18.94 44.11Z" fill="#00A7FF" fill-opacity="1.000000" fill-rule="evenodd"/>
</svg>
